<?xml version="1.0" standalone="no"?>
<!DOCTYPE svg PUBLIC "-//W3C//DTD SVG 20010904//EN"
 "http://www.w3.org/TR/2001/REC-SVG-20010904/DTD/svg10.dtd">
<svg version="1.0" xmlns="http://www.w3.org/2000/svg"
 width="112.000000pt" height="77.000000pt" viewBox="0 0 112.000000 77.000000"
 preserveAspectRatio="xMidYMid meet">

<g transform="translate(0.000000,77.000000) scale(0.100000,-0.100000)"
fill="#000000" stroke="none">
<path d="M698 718 l-68 -40 0 -50 c0 -27 3 -48 8 -46 4 2 42 22 84 46 l78 43
155 -90 155 -90 0 49 c0 57 10 48 -180 159 -69 40 -115 61 -135 60 -16 0 -60
-19 -97 -41z"/>
<path d="M522 617 l-32 -19 2 -206 3 -205 70 -43 70 -43 35 21 c19 12 39 24
43 28 5 4 -28 28 -72 54 l-81 46 -2 193 -3 193 -33 -19z"/>
<path d="M1040 347 l0 -93 -160 -93 c-88 -51 -160 -97 -160 -101 0 -9 62 -40
82 -40 7 0 78 38 158 84 l145 84 3 110 3 111 -30 16 c-17 8 -32 15 -36 15 -3
0 -5 -42 -5 -93z"/>
</g>
</svg>
